# Blender 4.1.1
# www.blender.org
mtllib cb_small.mtl
g area_light_Mesh
v 70.683739 109.559990 40.749424
v 70.683739 109.560013 71.090530
v 40.516258 109.560013 71.090530
v 40.516258 109.559990 40.749424
vn -0.0000 -1.0000 -0.0000
s 0
usemtl Material.004
f 1//1 2//1 3//1
f 1//1 3//1 4//1
g back_wall_Mesh
v 109.919991 0.000025 111.839996
v 0.000000 0.000025 111.839996
v 0.000000 109.760025 111.839966
v 111.199997 109.760025 111.839966
vn -0.0000 -0.0000 -1.0000
s 0
usemtl Wall
f 5//2 6//2 7//2
f 5//2 7//2 8//2
g ceiling_Mesh
v 111.199997 109.759995 -0.000025
v 111.199997 109.760025 111.839966
v 0.000000 109.760025 111.839966
v 0.000000 109.759995 -0.000025
vn -0.0000 -1.0000 -0.0000
s 0
usemtl Wall
f 9//3 10//3 11//3
f 9//3 11//3 12//3
g floor_Mesh
v 110.559990 0.000000 0.000000
v 0.000000 0.000000 0.000000
v 0.000000 0.000025 111.839996
v 109.919991 0.000025 111.839996
vn -0.0000 1.0000 -0.0000
s 0
usemtl Wall
f 13//4 14//4 15//4
f 13//4 15//4 16//4
g left_wall_Mesh
v 110.559990 0.000000 0.000000
v 109.919991 0.000025 111.839996
v 111.199997 109.760025 111.839966
v 111.199997 109.759995 -0.000025
vn -0.9999 0.0117 -0.0057
vn -1.0000 0.0058 -0.0000
s 0
usemtl Material.002
f 17//5 18//5 19//5
f 17//6 19//6 20//6
g right_wall_Mesh
v 0.000000 0.000025 111.839996
v 0.000000 0.000000 0.000000
v 0.000000 109.759995 -0.000025
v 0.000000 109.760025 111.839966
vn 1.0000 -0.0000 -0.0000
s 0
usemtl Material.001
f 21//7 22//7 23//7
f 21//7 23//7 24//7
g short_box_Mesh
v 25.999998 32.999996 12.999990
v 16.400000 33.000008 44.999989
v 47.999996 33.000008 54.399994
v 57.999996 33.000004 22.799990
v 57.999996 0.000005 22.799999
v 57.999996 33.000004 22.799990
v 47.999996 33.000008 54.399994
v 47.999996 0.000013 54.399998
v 25.999998 0.000003 12.999999
v 25.999998 32.999996 12.999990
v 57.999996 33.000004 22.799990
v 57.999996 0.000005 22.799999
v 16.400000 0.000010 44.999996
v 16.400000 33.000008 44.999989
v 25.999998 32.999996 12.999990
v 25.999998 0.000003 12.999999
v 47.999996 0.000013 54.399998
v 47.999996 33.000008 54.399994
v 16.400000 33.000008 44.999989
v 16.400000 0.000010 44.999996
vn -0.0000 1.0000 -0.0000
vn 0.9534 -0.0000 0.3017
vn 0.2928 -0.0000 -0.9562
vn -0.9578 -0.0000 -0.2873
vn -0.2851 -0.0000 0.9585
s 0
usemtl Wall
f 25//8 26//8 27//8
f 25//8 27//8 28//8
f 29//9 30//9 31//9
f 29//9 31//9 32//9
f 33//10 34//10 35//10
f 33//10 35//10 36//10
f 37//11 38//11 39//11
f 37//11 39//11 40//11
f 41//12 42//12 43//12
f 41//12 43//12 44//12
g tall_block_Mesh
v 84.599998 66.000008 49.399982
v 52.999996 66.000015 59.199982
v 62.799995 66.000015 91.199974
v 94.399994 66.000015 81.199974
v 84.599998 0.000011 49.399998
v 84.599998 66.000008 49.399982
v 94.399994 66.000015 81.199974
v 94.399994 0.000019 81.199997
v 94.399994 0.000019 81.199997
v 94.399994 66.000015 81.199974
v 62.799995 66.000015 91.199974
v 62.799995 0.000020 91.199997
v 62.799995 0.000020 91.199997
v 62.799995 66.000015 91.199974
v 52.999996 66.000015 59.199982
v 52.999996 0.000013 59.199997
v 52.999996 0.000013 59.199997
v 52.999996 66.000015 59.199982
v 84.599998 66.000008 49.399982
v 84.599998 0.000011 49.399998
vn -0.0000 1.0000 -0.0000
vn 0.9556 -0.0000 -0.2945
vn 0.3017 -0.0000 0.9534
vn -0.9562 -0.0000 0.2928
vn -0.2962 -0.0000 -0.9551
s 0
usemtl Wall
f 45//13 46//13 47//13
f 45//13 47//13 48//13
f 49//14 50//14 51//14
f 49//14 51//14 52//14
f 53//15 54//15 55//15
f 53//15 55//15 56//15
f 57//16 58//16 59//16
f 57//16 59//16 60//16
f 61//17 62//17 63//17
f 61//17 63//17 64//17
