# Blender 4.0.2
# www.blender.org
o F-22
v 0.885739 0.001910 -0.380334
v 0.322026 0.035470 -0.433102
v -0.907053 0.017201 -0.352922
v 1.047128 0.048117 -0.183264
v 0.362277 0.114239 -0.142520
v 1.125941 0.131116 -0.101088
v 1.199510 0.242528 -0.056765
v 1.529867 0.098373 -0.067674
v 1.566378 0.011323 -0.146393
v 1.762624 0.050007 -0.049581
v 1.789931 -0.007335 -0.103633
v -1.226703 0.083896 -0.231401
v -1.226703 0.083896 -0.043034
v -1.304689 0.083896 -0.142520
v -0.560223 0.071221 -0.299735
v 0.779234 -0.185506 -0.231401
v -0.408812 -0.168000 -0.231401
v -1.226703 -0.023036 -0.043034
v -1.226703 -0.023036 -0.231464
v -1.304556 -0.023036 -0.142520
v -0.442164 -0.009523 -0.406435
v -0.875984 0.035470 -1.161559
v -0.727243 0.035470 -1.316844
v -0.494141 0.035470 -1.316844
v -1.376274 0.035470 -0.874979
v -1.417826 0.035470 -0.043034
v 1.016889 0.247035 -0.041089
v -0.910201 0.071705 -0.260759
v -0.910201 0.114239 -0.142520
v -1.347072 0.053931 -0.291132
v -0.949411 0.058716 -0.324121
v -1.086356 0.618995 -0.582384
v -0.945513 0.618995 -0.582384
v -0.820765 0.618995 -0.582384
v -1.074394 0.035470 -0.526090
v -1.347072 0.017010 -0.291132
v -1.420792 0.035470 -0.231401
v -1.704863 0.035470 -0.554642
v -1.607890 0.035470 -0.874979
v 1.142508 0.156204 -0.091107
v 0.821684 0.218761 -0.028011
v 1.453805 0.131564 -0.065163
v 0.835981 0.180467 -0.042103
v 0.885739 0.001910 0.380334
v 0.322026 0.035470 0.433102
v -0.907053 0.017201 0.352922
v 1.047128 0.048117 0.183264
v 0.362277 0.114239 0.142520
v 1.125941 0.131116 0.101088
v 1.199510 0.242528 0.056765
v 1.529867 0.098373 0.067674
v 1.566378 0.011323 0.146393
v 1.762624 0.050007 0.049581
v 1.789931 -0.007335 0.103633
v -1.226703 0.083896 0.231401
v -1.226703 0.083896 0.043034
v -1.304689 0.083896 0.142520
v -0.560223 0.071221 0.299735
v 0.779234 -0.185506 0.231401
v -0.408812 -0.168000 0.231401
v -1.226703 -0.023036 0.043034
v -1.226703 -0.023036 0.231464
v -1.304556 -0.023036 0.142520
v -0.442164 -0.009523 0.406435
v -0.875984 0.035470 1.161559
v -0.727243 0.035470 1.316844
v -0.494141 0.035470 1.316844
v -1.376274 0.035470 0.874979
v -1.417826 0.035470 0.043034
v 1.016889 0.247035 0.041089
v -0.910201 0.071705 0.260759
v -0.910201 0.114239 0.142520
v -1.347072 0.053931 0.291132
v -0.949411 0.058716 0.324121
v -1.086356 0.618995 0.582384
v -0.945513 0.618995 0.582384
v -0.820765 0.618995 0.582384
v -1.074394 0.035470 0.526090
v -1.347072 0.017010 0.291132
v -1.420792 0.035470 0.231401
v -1.704863 0.035470 0.554642
v -1.607890 0.035470 0.874979
v 1.142508 0.156204 0.091107
v 0.821684 0.218761 0.028011
v 1.453805 0.131564 0.065163
v 0.835981 0.180467 0.042103
v -0.910201 0.094558 -0.000000
v 0.403590 0.158204 -0.000000
v 1.236021 0.268974 -0.000000
v 1.568094 0.113851 -0.000000
v 1.791648 0.062518 -0.000000
v 2.014232 -0.030625 0.000000
v 1.566378 -0.120168 0.000000
v 1.789931 -0.082458 0.000000
v 0.919486 -0.169810 0.000000
v -0.408812 -0.167592 0.000000
v -1.226703 0.078200 -0.000000
v -1.226703 -0.023036 0.000000
v -1.442453 0.035470 -0.000000
v 1.016889 0.266178 -0.000000
v 1.487051 0.151710 -0.000000
v 0.817113 0.231006 -0.000000
vn 0.0752 0.9554 -0.2856
vn -0.0464 0.9582 -0.2821
vn -0.0672 0.7335 -0.6764
vn -0.1079 0.3076 -0.9454
vn -0.1576 0.8951 -0.4170
vn 0.3158 0.7660 -0.5600
vn 0.1032 0.3081 -0.9457
vn 0.0996 0.6507 -0.7527
vn 0.1879 0.7196 -0.6685
vn 0.2166 0.9180 -0.3323
vn 0.3493 0.7254 -0.5931
vn 0.3509 0.8385 -0.4170
vn -0.0000 0.9645 -0.2639
vn 0.0656 -0.7424 -0.6668
vn 0.1839 -0.7958 -0.5769
vn 0.0506 -0.6600 -0.7496
vn 0.6508 -0.6744 -0.3487
vn -0.0147 -0.9999 0.0018
vn -0.0004 0.9652 -0.2616
vn -0.0000 0.9994 -0.0351
vn -0.0610 0.9980 -0.0190
vn 0.0346 -0.6338 -0.7728
vn -0.0101 -0.6854 -0.7281
vn -0.2421 0.9703 0.0011
vn -0.7517 -0.0009 -0.6595
vn -0.7870 -0.0010 0.6169
vn 0.0569 -0.9970 -0.0525
vn -0.0625 -0.9970 -0.0448
vn 0.0001 -0.0006 1.0000
vn -0.0313 0.9991 -0.0300
vn -0.1740 -0.9847 -0.0000
vn -0.2927 -0.9562 -0.0000
vn -0.0512 0.9901 0.1310
vn -0.0000 -0.0000 -1.0000
vn -0.1931 0.9749 -0.1105
vn -0.0670 -0.9975 -0.0209
vn -0.0388 -0.9986 -0.0372
vn -0.1372 -0.7744 -0.6176
vn 0.0702 -0.4308 -0.8997
vn -0.0000 -0.4186 -0.9082
vn -0.1725 -0.9734 -0.1510
vn -0.1596 -0.9872 0.0017
vn -0.1795 -0.9737 0.1405
vn 0.0048 0.9410 -0.3385
vn -0.0000 0.9906 0.1368
vn 0.0387 0.9987 -0.0335
vn -0.0258 0.9948 -0.0985
vn -0.0061 0.8987 -0.4386
vn -0.0204 0.9946 -0.1018
vn -0.1436 0.9816 0.1262
vn -0.0000 0.5067 0.8621
vn -0.0803 0.4857 0.8704
vn -0.2881 -0.9557 -0.0602
vn 0.0387 -0.9987 -0.0335
vn -0.0421 -0.9990 -0.0128
vn -0.0126 -0.9956 -0.0929
vn -0.0646 -0.8840 -0.4629
vn -0.0000 0.9995 -0.0316
vn -0.0000 -0.9995 -0.0316
vn -0.0766 0.9953 0.0600
vn -0.0765 0.9948 -0.0671
vn -0.0519 0.9893 0.1366
vn -0.1094 0.4290 -0.8967
vn 0.3481 0.8307 -0.4344
vn -0.0681 0.4073 -0.9107
vn -0.1215 0.3445 -0.9309
vn -0.0116 0.9064 -0.4223
vn -0.0132 0.9096 -0.4153
vn 0.3865 0.8274 -0.4076
vn 0.1032 0.3081 -0.9458
vn -0.1436 -0.9816 0.1262
vn 0.0970 0.4924 0.8649
vn -0.0421 0.9990 -0.0128
vn -0.0694 -0.4316 -0.8994
vn -0.1182 -0.7472 -0.6540
vn -0.2436 0.9615 0.1273
vn -0.2588 -0.9545 -0.1481
vn -0.0000 -0.9988 -0.0494
vn -0.7875 -0.0000 0.6163
vn -0.7525 0.0004 -0.6586
vn 0.0200 -0.7392 -0.6731
vn 0.0355 0.9988 -0.0328
vn -0.0017 -0.9976 0.0687
vn 0.6468 -0.6647 -0.3739
vn -0.0053 -0.7439 -0.6682
vn 0.1353 -0.8022 -0.5815
vn -0.0364 0.9403 -0.3383
vn 0.2094 0.9120 -0.3527
vn 0.1990 0.7019 -0.6839
vn 0.1150 0.6924 -0.7123
vn 0.3791 0.8117 -0.4444
vn 0.0728 0.9469 -0.3132
vn 0.0825 0.9589 -0.2714
vn 0.0752 0.9554 0.2856
vn -0.0464 0.9582 0.2821
vn -0.0672 0.7335 0.6764
vn -0.1079 0.3076 0.9454
vn -0.1576 0.8951 0.4170
vn 0.3158 0.7660 0.5600
vn 0.1032 0.3081 0.9457
vn 0.0996 0.6507 0.7527
vn 0.1879 0.7196 0.6685
vn 0.2166 0.9180 0.3323
vn 0.3493 0.7254 0.5931
vn 0.3509 0.8385 0.4170
vn -0.0000 0.9645 0.2639
vn 0.0656 -0.7424 0.6668
vn 0.1839 -0.7958 0.5769
vn 0.0506 -0.6600 0.7496
vn 0.6508 -0.6744 0.3487
vn -0.0147 -0.9999 -0.0018
vn -0.0004 0.9652 0.2616
vn -0.0000 0.9994 0.0351
vn -0.0610 0.9980 0.0190
vn 0.0346 -0.6338 0.7728
vn -0.0101 -0.6854 0.7281
vn -0.2421 0.9703 -0.0011
vn -0.7517 -0.0009 0.6595
vn -0.7870 -0.0010 -0.6169
vn 0.0569 -0.9970 0.0525
vn -0.0625 -0.9970 0.0448
vn 0.0001 -0.0006 -1.0000
vn -0.0313 0.9991 0.0300
vn -0.0512 0.9901 -0.1310
vn -0.0000 -0.0000 1.0000
vn -0.1931 0.9749 0.1105
vn -0.0670 -0.9975 0.0209
vn -0.0388 -0.9986 0.0372
vn -0.1372 -0.7744 0.6176
vn 0.0702 -0.4308 0.8997
vn -0.0000 -0.4186 0.9082
vn -0.1725 -0.9734 0.1510
vn -0.1596 -0.9872 -0.0017
vn -0.1795 -0.9737 -0.1405
vn 0.0048 0.9410 0.3385
vn -0.0000 0.9906 -0.1368
vn 0.0387 0.9987 0.0335
vn -0.0258 0.9948 0.0985
vn -0.0061 0.8987 0.4386
vn -0.0204 0.9946 0.1018
vn -0.1436 0.9816 -0.1262
vn -0.0000 0.5067 -0.8621
vn -0.0803 0.4857 -0.8704
vn -0.2881 -0.9557 0.0602
vn 0.0387 -0.9987 0.0335
vn -0.0421 -0.9990 0.0128
vn -0.0126 -0.9956 0.0929
vn -0.0646 -0.8840 0.4629
vn -0.0000 0.9995 0.0316
vn -0.0000 -0.9995 0.0316
vn -0.0766 0.9953 -0.0600
vn -0.0765 0.9948 0.0671
vn -0.0519 0.9893 -0.1366
vn -0.1094 0.4290 0.8967
vn 0.3481 0.8307 0.4344
vn -0.0681 0.4073 0.9107
vn -0.1215 0.3445 0.9309
vn -0.0116 0.9064 0.4223
vn -0.0132 0.9096 0.4153
vn 0.3865 0.8274 0.4076
vn 0.1032 0.3081 0.9458
vn -0.1436 -0.9816 -0.1262
vn 0.0970 0.4924 -0.8649
vn -0.0421 0.9990 0.0128
vn -0.0694 -0.4316 0.8994
vn -0.1182 -0.7472 0.6540
vn -0.2436 0.9615 -0.1273
vn -0.2588 -0.9545 0.1481
vn -0.0000 -0.9988 0.0494
vn -0.7875 -0.0000 -0.6163
vn -0.7525 0.0004 0.6586
vn 0.0200 -0.7392 0.6731
vn 0.0355 0.9988 0.0328
vn -0.0017 -0.9976 -0.0687
vn 0.6468 -0.6647 0.3739
vn -0.0053 -0.7439 0.6682
vn 0.1353 -0.8022 0.5815
vn -0.0364 0.9403 0.3383
vn 0.2094 0.9120 0.3527
vn 0.1990 0.7019 0.6839
vn 0.1150 0.6924 0.7123
vn 0.3791 0.8117 0.4444
vn 0.0728 0.9469 0.3132
vn 0.0825 0.9591 0.2709
vt 0.302940 0.699066
vt 0.442081 0.762279
vt 0.260042 0.751449
vt 0.780315 0.800162
vt 0.431099 0.800162
vt 0.239093 0.773292
vt 0.316239 0.628907
vt 0.320312 0.648438
vt 0.269531 0.648438
vt 0.268080 0.668033
vt 0.209833 0.668033
vt 0.152344 0.648438
vt 0.218750 0.648438
vt 0.234686 0.622186
vt 0.122021 0.761249
vt 0.069858 0.786983
vt 0.062599 0.772615
vt 0.121565 0.800162
vt 0.131726 0.782173
vt 0.002978 0.800162
vt 0.062143 0.800162
vt 0.687288 0.720490
vt 0.780315 0.762279
vt 0.117476 0.888175
vt 0.176898 0.858183
vt 0.176898 0.893135
vt 0.057855 0.881984
vt 0.117476 0.868207
vt 0.314919 0.902915
vt 0.348847 0.844988
vt 0.350939 0.448650
vt 0.338144 0.510748
vt 0.289431 0.452822
vt 0.329981 0.132766
vt 0.645773 0.071258
vt 0.645773 0.132766
vt 0.452780 0.685040
vt 0.669723 0.450134
vt 0.731683 0.450134
vt 0.771220 0.491410
vt 0.823959 0.660323
vt 0.507656 0.899553
vt 0.357817 0.890633
vt 0.386127 0.840816
vt 0.701919 0.845469
vt 0.896439 0.722777
vt 0.916034 0.738294
vt 0.864444 0.738294
vt 0.445843 0.497454
vt 0.469468 0.469031
vt 0.469468 0.497454
vt 0.495912 0.497454
vt 0.654638 0.182832
vt 0.668454 0.424826
vt 0.451511 0.189920
vt 0.654638 0.179292
vt 0.778209 0.165068
vt 0.822690 0.211097
vt 0.864444 0.469031
vt 0.864444 0.497454
vt 0.916034 0.484582
vt 0.863174 0.082019
vt 0.863174 0.071258
vt 0.913977 0.082019
vt 0.864444 0.800162
vt 0.864444 0.789083
vt 0.809306 0.497454
vt 0.809306 0.469031
vt 0.860108 0.484582
vt 0.915246 0.789083
vt 0.921792 0.800162
vt 0.822690 0.214637
vt 0.769951 0.383550
vt 0.730414 0.424826
vt 0.834355 0.894697
vt 0.919320 0.884002
vt 0.141653 0.276624
vt 0.107458 0.425551
vt 0.038204 0.279948
vt 0.178054 0.425551
vt 0.140617 0.425551
vt 0.883868 0.109141
vt 0.863174 0.132783
vt 0.780315 0.730850
vt 0.904201 0.567586
vt 0.790737 0.714008
vt 0.991542 0.652734
vt 0.385137 0.280077
vt 0.361364 0.425551
vt 0.394523 0.425551
vt 0.431960 0.425551
vt 0.501261 0.275352
vt 0.895170 0.148643
vt 0.914765 0.132766
vt 0.902932 0.303834
vt 0.990273 0.218686
vt 0.964497 0.303834
vt 0.965766 0.567586
vt 0.885173 0.762279
vt 0.151941 0.583698
vt 0.239090 0.583579
vt 0.234686 0.590248
vt 0.316239 0.596969
vt 0.431096 0.590779
vt 0.321182 0.614322
vt 0.319967 0.606876
vt 0.431099 0.614322
vt 0.143107 0.601016
vt 0.131726 0.583028
vt 0.321182 0.668033
vt 0.121565 0.601016
vt 0.131723 0.574876
vt 0.292110 0.279948
vt 0.247354 0.275352
vt 0.710784 0.887594
vt 0.920523 0.071258
vt 0.495912 0.469031
vt 0.445826 0.469031
vt 0.292701 0.071258
vt 0.390527 0.498466
vt 0.143107 0.668033
s 0
f 1/1/1 5/2/1 4/3/1
f 5/2/2 87/4/2 88/5/2
f 4/3/3 88/5/3 6/6/3
f 43/7/4 41/8/4 27/9/4
f 41/8/5 100/10/5 27/9/5
f 89/11/6 42/12/6 7/13/6
f 7/13/7 42/12/7 40/14/7
f 6/6/8 9/15/8 4/3/8
f 9/15/9 10/16/9 11/17/9
f 90/18/10 10/16/10 8/19/10
f 11/17/11 10/16/11 92/20/11
f 10/16/12 91/21/12 92/20/12
f 15/22/13 29/23/13 5/2/13
f 11/24/14 93/25/14 9/26/14
f 11/24/15 92/27/15 94/28/15
f 4/29/16 93/25/16 95/30/16
f 16/31/17 4/32/17 95/33/17
f 16/34/18 96/35/18 17/36/18
f 5/2/19 2/37/19 15/22/19
f 15/22/20 24/38/20 23/39/20
f 15/22/21 22/40/21 35/41/21
f 2/42/22 1/43/22 16/44/22
f 17/45/23 2/42/23 16/44/23
f 30/46/24 37/47/24 12/48/24
f 12/49/25 20/50/25 14/51/25
f 20/50/26 13/52/26 14/51/26
f 21/53/27 24/54/27 2/55/27
f 21/56/28 3/57/28 35/58/28
f 19/59/29 12/60/29 37/61/29
f 15/22/30 23/39/30 22/40/30
f 18/62/31 96/35/31 98/63/31
f 98/63/32 26/64/32 18/62/32
f 97/65/33 87/4/33 13/66/33
f 13/67/34 18/68/34 26/69/34
f 97/65/35 26/70/35 99/71/35
f 35/72/36 22/73/36 21/53/36
f 22/73/37 23/74/37 21/53/37
f 3/75/38 17/45/38 19/76/38
f 31/77/39 34/78/39 15/79/39
f 31/77/40 32/80/40 33/81/40
f 20/82/41 19/83/41 17/36/41
f 20/82/42 17/36/42 96/35/42
f 18/62/43 20/82/43 96/35/43
f 29/23/44 28/84/44 12/48/44
f 87/4/45 5/2/45 29/23/45
f 25/85/46 30/46/46 35/41/46
f 31/86/47 15/22/47 35/41/47
f 30/46/48 12/48/48 28/84/48
f 30/46/49 31/86/49 35/41/49
f 30/46/50 38/87/50 37/47/50
f 28/88/51 34/89/51 33/90/51
f 28/88/52 32/91/52 30/92/52
f 36/93/53 19/83/53 37/94/53
f 36/93/54 25/95/54 35/58/54
f 36/93/55 38/96/55 39/97/55
f 36/93/56 35/58/56 3/57/56
f 3/57/57 19/83/57 36/93/57
f 25/85/58 39/98/58 30/46/58
f 36/93/59 39/97/59 25/95/59
f 29/23/60 14/99/60 13/66/60
f 14/99/61 29/23/61 12/48/61
f 87/4/62 29/23/62 13/66/62
f 42/100/7 6/101/7 40/102/7
f 43/103/63 6/101/63 88/104/63
f 102/105/5 41/106/5 88/107/5
f 101/108/64 8/109/64 42/100/64
f 27/9/65 7/13/65 40/14/65
f 40/14/66 43/7/66 27/9/66
f 41/8/5 102/110/5 100/10/5
f 100/10/67 89/11/67 27/9/67
f 89/11/68 7/13/68 27/9/68
f 101/108/69 90/111/69 8/109/69
f 43/103/63 40/102/63 6/101/63
f 88/104/4 41/106/4 43/103/4
f 42/100/70 8/112/70 6/101/70
f 36/93/71 37/94/71 38/96/71
f 28/88/51 33/90/51 32/91/51
f 28/88/72 15/113/72 34/89/72
f 30/46/73 39/98/73 38/87/73
f 31/77/74 30/114/74 32/80/74
f 31/77/40 33/81/40 34/78/40
f 3/75/75 21/115/75 17/45/75
f 97/65/76 13/66/76 26/70/76
f 98/63/77 99/116/77 26/64/77
f 21/53/78 23/74/78 24/54/78
f 20/50/79 18/117/79 13/52/79
f 12/49/80 19/118/80 20/50/80
f 17/45/81 21/115/81 2/42/81
f 15/22/82 2/37/82 24/38/82
f 16/34/83 95/119/83 96/35/83
f 16/31/84 1/120/84 4/32/84
f 4/29/85 9/26/85 93/25/85
f 11/24/86 94/28/86 93/25/86
f 15/22/87 28/84/87 29/23/87
f 90/18/88 91/21/88 10/16/88
f 9/15/89 8/19/89 10/16/89
f 6/6/90 8/19/90 9/15/90
f 89/11/91 101/121/91 42/12/91
f 4/3/92 5/2/92 88/5/92
f 1/1/93 2/37/93 5/2/93
f 44/1/94 47/3/94 48/2/94
f 48/2/95 88/5/95 87/4/95
f 47/3/96 49/6/96 88/5/96
f 86/7/97 70/9/97 84/8/97
f 84/8/98 70/9/98 100/10/98
f 89/11/99 50/13/99 85/12/99
f 50/13/100 83/14/100 85/12/100
f 49/6/101 47/3/101 52/15/101
f 52/15/102 54/17/102 53/16/102
f 90/18/103 51/19/103 53/16/103
f 54/17/104 92/20/104 53/16/104
f 53/16/105 92/20/105 91/21/105
f 58/22/106 48/2/106 72/23/106
f 54/24/107 52/26/107 93/25/107
f 54/24/108 94/28/108 92/27/108
f 47/29/109 95/30/109 93/25/109
f 59/31/110 95/33/110 47/32/110
f 59/34/111 60/36/111 96/35/111
f 48/2/112 58/22/112 45/37/112
f 58/22/113 66/39/113 67/38/113
f 58/22/114 78/41/114 65/40/114
f 45/42/115 59/44/115 44/43/115
f 60/45/116 59/44/116 45/42/116
f 73/46/117 55/48/117 80/47/117
f 55/49/118 57/51/118 63/50/118
f 63/50/119 57/51/119 56/52/119
f 64/53/120 45/55/120 67/54/120
f 64/56/121 78/58/121 46/57/121
f 62/59/122 80/61/122 55/60/122
f 58/22/123 65/40/123 66/39/123
f 61/62/31 98/63/31 96/35/31
f 98/63/32 61/62/32 69/64/32
f 97/65/124 56/66/124 87/4/124
f 56/67/125 69/69/125 61/68/125
f 97/65/126 99/71/126 69/70/126
f 78/72/127 64/53/127 65/73/127
f 65/73/128 64/53/128 66/74/128
f 46/75/129 62/76/129 60/45/129
f 74/77/130 58/79/130 77/78/130
f 74/77/131 76/81/131 75/80/131
f 63/82/132 60/36/132 62/83/132
f 63/82/133 96/35/133 60/36/133
f 61/62/134 96/35/134 63/82/134
f 72/23/135 55/48/135 71/84/135
f 87/4/136 72/23/136 48/2/136
f 68/85/137 78/41/137 73/46/137
f 74/86/138 78/41/138 58/22/138
f 73/46/139 71/84/139 55/48/139
f 73/46/140 78/41/140 74/86/140
f 73/46/141 80/47/141 81/87/141
f 71/88/142 76/90/142 77/89/142
f 71/88/143 73/92/143 75/91/143
f 79/93/144 80/94/144 62/83/144
f 79/93/145 78/58/145 68/95/145
f 79/93/146 82/97/146 81/96/146
f 79/93/147 46/57/147 78/58/147
f 46/57/148 79/93/148 62/83/148
f 68/85/149 73/46/149 82/98/149
f 79/93/150 68/95/150 82/97/150
f 72/23/151 56/66/151 57/99/151
f 57/99/152 55/48/152 72/23/152
f 87/4/153 56/66/153 72/23/153
f 85/100/100 83/102/100 49/101/100
f 86/103/154 88/104/154 49/101/154
f 102/105/98 88/107/98 84/106/98
f 101/108/155 85/100/155 51/109/155
f 70/9/156 83/14/156 50/13/156
f 83/14/157 70/9/157 86/7/157
f 84/8/98 100/10/98 102/110/98
f 100/10/158 70/9/158 89/11/158
f 89/11/159 70/9/159 50/13/159
f 101/108/160 51/109/160 90/111/160
f 86/103/154 49/101/154 83/102/154
f 88/104/97 86/103/97 84/106/97
f 85/100/161 49/101/161 51/112/161
f 79/93/162 81/96/162 80/94/162
f 71/88/142 75/91/142 76/90/142
f 71/88/163 77/89/163 58/113/163
f 73/46/164 81/87/164 82/98/164
f 74/77/165 75/80/165 73/114/165
f 74/77/131 77/78/131 76/81/131
f 46/75/166 60/45/166 64/115/166
f 97/65/167 69/70/167 56/66/167
f 98/63/168 69/64/168 99/116/168
f 64/53/169 67/54/169 66/74/169
f 63/50/170 56/52/170 61/117/170
f 55/49/171 63/50/171 62/118/171
f 60/45/172 45/42/172 64/115/172
f 58/22/173 67/38/173 45/37/173
f 59/34/174 96/35/174 95/119/174
f 59/31/175 47/32/175 44/120/175
f 47/29/176 93/25/176 52/26/176
f 54/24/177 93/25/177 94/28/177
f 58/22/178 72/23/178 71/84/178
f 90/18/179 53/16/179 91/21/179
f 52/15/180 53/16/180 51/19/180
f 49/6/181 52/15/181 51/19/181
f 89/11/182 85/12/182 101/121/182
f 47/3/183 88/5/183 48/2/183
f 44/1/184 48/2/184 45/37/184
