# Blender 4.0.2
# www.blender.org
o F-22
v 0.110462 1.292231 -0.436134
v -0.033569 1.184250 -0.243373
v -0.280869 0.874321 0.170046
v 0.229100 1.300803 -0.454672
v 0.097985 1.154469 -0.201448
v 0.288034 1.328333 -0.446795
v 0.333999 1.372654 -0.432575
v 0.388577 1.403793 -0.588045
v 0.356533 1.400946 -0.635289
v 0.442878 1.437689 -0.678568
v 0.421641 1.437066 -0.711012
v -0.297990 0.794900 0.310222
v -0.224090 0.752481 0.330526
v -0.280683 0.756752 0.345840
v -0.176075 0.961021 0.076471
v 0.124704 1.171356 -0.441724
v -0.140954 0.900968 -0.039729
v -0.235617 0.716779 0.297889
v -0.309541 0.759213 0.277578
v -0.292179 0.721082 0.313158
v -0.200051 0.985541 0.000909
v -0.589143 1.069748 0.078086
v -0.616568 1.139301 0.011688
v -0.564074 1.193500 -0.066138
v -0.589378 0.888888 0.276008
v -0.272351 0.691875 0.379556
v 0.299509 1.328167 -0.368538
v -0.239546 0.871032 0.197667
v -0.188574 0.858605 0.223393
v -0.351760 0.770360 0.334826
v -0.274634 0.871847 0.199963
v -0.346401 1.085226 0.388853
v -0.314684 1.117974 0.341829
v -0.286591 1.146979 0.300180
v -0.384521 0.880509 0.212826
v -0.355739 0.758034 0.323557
v -0.346918 0.733605 0.360242
v -0.537702 0.740349 0.420243
v -0.641537 0.835035 0.353337
v 0.298385 1.338313 -0.443593
v 0.257632 1.270395 -0.310585
v 0.376010 1.396624 -0.552249
v 0.251196 1.264108 -0.328565
v 0.408883 1.120931 -0.354142
v 0.306255 0.989183 -0.150005
v -0.003956 0.715367 0.246129
v 0.372895 1.218262 -0.415164
v 0.209810 1.090279 -0.170723
v 0.367351 1.282803 -0.425002
v 0.378539 1.347087 -0.420338
v 0.441676 1.373313 -0.573456
v 0.471397 1.335012 -0.603730
v 0.481780 1.415358 -0.667879
v 0.502955 1.390390 -0.688671
v -0.116426 0.690679 0.360108
v -0.190325 0.733098 0.339803
v -0.168857 0.692562 0.376564
v 0.059106 0.826021 0.141087
v 0.306268 1.067134 -0.391839
v 0.040610 0.796746 0.010156
v -0.201851 0.697397 0.307166
v -0.127927 0.654963 0.327477
v -0.180353 0.656891 0.343883
v 0.118850 0.802485 0.088528
v 0.322250 0.546587 0.328494
v 0.416667 0.546201 0.295572
v 0.469161 0.600399 0.217747
v 0.097157 0.494802 0.464635
v -0.238585 0.672492 0.388833
v 0.331749 1.309661 -0.359680
v -0.034947 0.753587 0.253881
v -0.076749 0.794415 0.254118
v -0.123329 0.639236 0.397588
v -0.020319 0.725865 0.269837
v 0.110554 0.822923 0.514403
v 0.142272 0.855671 0.467379
v 0.170365 0.884676 0.425730
v 0.028265 0.643561 0.326240
v -0.127309 0.626909 0.386319
v -0.165354 0.629383 0.410128
v -0.102514 0.490541 0.539812
v 0.044997 0.440949 0.541965
v 0.369870 1.297279 -0.423952
v 0.279611 1.257779 -0.304547
v 0.427139 1.367275 -0.538202
v 0.284231 1.245145 -0.319489
v -0.134783 0.819939 0.232749
v 0.167940 1.146658 -0.186460
v 0.367342 1.377190 -0.430575
v 0.425403 1.402609 -0.588789
v 0.470214 1.437449 -0.679095
v 0.510299 1.458104 -0.781837
v 0.399792 1.324078 -0.659643
v 0.454200 1.388647 -0.722770
v 0.248762 1.157095 -0.458817
v -0.050128 0.848993 -0.014662
v -0.207822 0.740888 0.333426
v -0.218734 0.707088 0.302528
v -0.261014 0.676458 0.392417
v 0.317692 1.325306 -0.358267
v 0.411233 1.396406 -0.550177
v 0.268912 1.267113 -0.302302
vn 0.0169 0.8619 0.5068
vn -0.0384 0.8014 0.5969
vn -0.4332 0.8206 0.3728
vn -0.7785 0.6247 0.0602
vn -0.2207 0.7658 0.6040
vn -0.1419 0.9790 0.1463
vn -0.6765 0.7308 -0.0911
vn -0.4360 0.8815 0.1811
vn -0.3061 0.9343 0.1824
vn 0.0373 0.9283 0.3700
vn -0.1630 0.9827 0.0878
vn 0.0125 0.9794 0.2018
vn 0.0009 0.8203 0.5719
vn -0.7029 -0.1773 -0.6889
vn -0.5821 -0.2001 -0.7881
vn -0.7608 -0.0855 -0.6433
vn -0.1353 0.0101 -0.9907
vn -0.2374 -0.7261 -0.6453
vn 0.0028 0.8194 0.5732
vn 0.2020 0.7345 0.6478
vn 0.1857 0.6952 0.6944
vn -0.7821 -0.0635 -0.6199
vn -0.7780 -0.1446 -0.6114
vn 0.1086 0.5750 0.8109
vn -0.9207 -0.0571 0.3862
vn 0.1391 -0.6930 0.7074
vn -0.2479 -0.6619 -0.7074
vn -0.2992 -0.7254 -0.6199
vn 0.8436 -0.4846 0.2313
vn 0.1911 0.7162 0.6713
vn -0.3125 -0.7940 -0.5214
vn -0.3634 -0.8329 -0.4174
vn 0.3153 0.6218 0.7169
vn -0.8437 0.4843 -0.2318
vn 0.0393 0.6569 0.7529
vn -0.2813 -0.7396 -0.6115
vn -0.2816 -0.7183 -0.6361
vn -0.7670 -0.3255 -0.5529
vn -0.8249 0.1615 -0.5417
vn -0.8632 0.1392 -0.4853
vn -0.4366 -0.7120 -0.5500
vn -0.3046 -0.7894 -0.5330
vn -0.1941 -0.8568 -0.4777
vn -0.0651 0.8419 0.5357
vn 0.3450 0.6450 0.6819
vn 0.2220 0.7526 0.6199
vn 0.1350 0.7491 0.6486
vn -0.1647 0.8546 0.4925
vn 0.1347 0.7532 0.6439
vn 0.2644 0.5718 0.7766
vn 0.8448 -0.0538 0.5324
vn 0.8081 -0.1130 0.5782
vn -0.4119 -0.8011 -0.4344
vn -0.2410 -0.6814 -0.6911
vn -0.2627 -0.7322 -0.6284
vn -0.3152 -0.6761 -0.6659
vn -0.6268 -0.4428 -0.6411
vn 0.2050 0.7329 0.6487
vn -0.2583 -0.7023 -0.6633
vn 0.2443 0.6472 0.7221
vn 0.1369 0.7085 0.6923
vn 0.3194 0.6182 0.7182
vn -0.7100 0.6875 0.1522
vn -0.0054 0.9809 0.1946
vn -0.7069 0.6994 0.1051
vn -0.7643 0.6374 0.0976
vn -0.1518 0.8495 0.5053
vn -0.1459 0.8476 0.5102
vn 0.0351 0.9846 0.1711
vn -0.7100 0.6875 0.1523
vn -0.1906 -0.8376 -0.5119
vn 0.8908 -0.0168 0.4541
vn 0.2004 0.7024 0.6830
vn -0.8924 0.0910 -0.4419
vn -0.7822 -0.2789 -0.5571
vn 0.2123 0.5069 0.8355
vn -0.4716 -0.7430 -0.4750
vn -0.2732 -0.6932 -0.6670
vn 0.1385 -0.6922 0.7083
vn -0.9200 -0.0570 0.3878
vn -0.7295 -0.1948 -0.6556
vn 0.2211 0.7508 0.6225
vn -0.1741 -0.7504 -0.6377
vn -0.1562 0.0273 -0.9873
vn -0.7387 -0.2132 -0.6394
vn -0.6110 -0.2267 -0.7585
vn -0.0850 0.8208 0.5649
vn 0.0152 0.9303 0.3665
vn -0.3179 0.9347 0.1593
vn -0.3847 0.8996 0.2067
vn -0.0031 0.9875 0.1575
vn -0.0095 0.8679 0.4966
vn 0.0333 0.8611 0.5073
vn 0.4989 0.5852 0.6392
vn 0.4377 0.5281 0.7277
vn 0.7081 0.1655 0.6864
vn 0.8166 -0.2909 0.4985
vn 0.4830 0.3619 0.7973
vn 0.8029 0.4367 0.4059
vn 0.9193 -0.1852 0.3473
vn 0.8341 0.1525 0.5301
vn 0.8218 0.2869 0.4923
vn 0.5980 0.6064 0.5240
vn 0.8377 0.4083 0.3628
vn 0.7160 0.5755 0.3951
vn 0.4462 0.5647 0.6943
vn 0.4222 -0.8231 -0.3798
vn 0.3913 -0.7588 -0.5207
vn 0.5039 -0.8115 -0.2958
vn 0.4530 -0.3277 -0.8291
vn -0.2404 -0.7244 -0.6461
vn 0.4442 0.5661 0.6944
vn 0.2613 0.7005 0.6641
vn 0.2178 0.6768 0.7032
vn 0.5218 -0.8119 -0.2617
vn 0.4504 -0.8498 -0.2739
vn 0.1067 0.5761 0.8104
vn 0.1922 -0.6959 0.6919
vn -0.9018 -0.0954 0.4214
vn -0.1593 -0.7128 -0.6830
vn -0.2236 -0.7688 -0.5992
vn -0.8437 0.4839 -0.2323
vn 0.2417 0.6871 0.6852
vn 0.0942 0.7487 0.6562
vn 0.8437 -0.4843 0.2318
vn 0.2257 0.5499 0.8041
vn -0.2460 -0.7598 -0.6018
vn -0.2189 -0.7544 -0.6189
vn 0.2751 -0.9237 -0.2666
vn 0.6932 -0.7099 -0.1246
vn 0.6691 -0.7404 -0.0643
vn -0.1818 -0.8582 -0.4800
vn -0.3076 -0.7877 -0.5338
vn -0.4311 -0.7208 -0.5428
vn 0.5060 0.5141 0.6926
vn 0.1142 0.7775 0.6185
vn 0.2785 0.7202 0.6354
vn 0.3012 0.6536 0.6943
vn 0.5754 0.4298 0.6959
vn 0.3066 0.6546 0.6911
vn 0.0515 0.6940 0.7181
vn -0.6099 0.7813 0.1327
vn -0.6606 0.7301 0.1747
vn -0.3102 -0.8594 -0.4065
vn -0.1845 -0.7139 -0.6755
vn -0.2412 -0.7445 -0.6225
vn -0.1585 -0.7661 -0.6229
vn 0.1544 -0.8912 -0.4265
vn 0.2583 0.7023 0.6633
vn -0.2050 -0.7329 -0.6487
vn 0.1430 0.7053 0.6943
vn 0.2502 0.6435 0.7234
vn 0.0889 0.7505 0.6549
vn 0.8029 -0.1810 0.5679
vn 0.7277 0.5601 0.3960
vn 0.8298 -0.1827 0.5274
vn 0.8063 -0.2642 0.5292
vn 0.5608 0.4405 0.7011
vn 0.5548 0.4454 0.7027
vn 0.7228 0.5899 0.3600
vn 0.8029 -0.1809 0.5679
vn -0.4035 -0.7154 -0.5704
vn -0.5686 0.8209 0.0531
vn 0.2219 0.6900 0.6889
vn 0.6251 -0.7801 -0.0249
vn 0.3213 -0.9123 -0.2539
vn -0.0025 0.6301 0.7765
vn -0.2216 -0.8864 -0.4063
vn -0.1899 -0.7410 -0.6441
vn -0.9013 -0.0953 0.4226
vn 0.1913 -0.6949 0.6932
vn 0.4062 -0.8467 -0.3436
vn 0.2764 0.7190 0.6377
vn -0.2900 -0.6838 -0.6695
vn 0.4746 -0.3349 -0.8140
vn 0.3887 -0.8604 -0.3296
vn 0.3702 -0.7899 -0.4889
vn 0.4857 0.4931 0.7217
vn 0.6104 0.5887 0.5300
vn 0.8360 0.2723 0.4763
vn 0.8171 0.2097 0.5370
vn 0.7466 0.5571 0.3635
vn 0.5190 0.5646 0.6418
vn 0.4908 0.5986 0.6330
vt 0.302940 0.699066
vt 0.442081 0.762279
vt 0.260042 0.751449
vt 0.780315 0.800162
vt 0.431099 0.800162
vt 0.239093 0.773292
vt 0.316239 0.628907
vt 0.320312 0.648438
vt 0.269531 0.648438
vt 0.268080 0.668033
vt 0.209833 0.668033
vt 0.152344 0.648438
vt 0.218750 0.648438
vt 0.234686 0.622186
vt 0.122021 0.761249
vt 0.069858 0.786983
vt 0.062599 0.772615
vt 0.121565 0.800162
vt 0.131726 0.782173
vt 0.002978 0.800162
vt 0.062143 0.800162
vt 0.687288 0.720490
vt 0.780315 0.762279
vt 0.117476 0.888175
vt 0.176898 0.858183
vt 0.176898 0.893135
vt 0.057855 0.881984
vt 0.117476 0.868207
vt 0.314919 0.902915
vt 0.348847 0.844988
vt 0.350939 0.448650
vt 0.338144 0.510748
vt 0.289431 0.452822
vt 0.329981 0.132766
vt 0.645773 0.071258
vt 0.645773 0.132766
vt 0.452780 0.685040
vt 0.669723 0.450134
vt 0.731683 0.450134
vt 0.771220 0.491410
vt 0.823959 0.660323
vt 0.507656 0.899553
vt 0.357817 0.890633
vt 0.386127 0.840816
vt 0.701919 0.845469
vt 0.896439 0.722777
vt 0.916034 0.738294
vt 0.864444 0.738294
vt 0.445843 0.497454
vt 0.469468 0.469031
vt 0.469468 0.497454
vt 0.495912 0.497454
vt 0.654638 0.182832
vt 0.668454 0.424826
vt 0.451511 0.189920
vt 0.654638 0.179292
vt 0.778209 0.165068
vt 0.822690 0.211097
vt 0.864444 0.469031
vt 0.864444 0.497454
vt 0.916034 0.484582
vt 0.863174 0.082019
vt 0.863174 0.071258
vt 0.913977 0.082019
vt 0.864444 0.800162
vt 0.864444 0.789083
vt 0.809306 0.497454
vt 0.809306 0.469031
vt 0.860108 0.484582
vt 0.915246 0.789083
vt 0.921792 0.800162
vt 0.822690 0.214637
vt 0.769951 0.383550
vt 0.730414 0.424826
vt 0.834355 0.894697
vt 0.919320 0.884002
vt 0.141653 0.276624
vt 0.107458 0.425551
vt 0.038204 0.279948
vt 0.178054 0.425551
vt 0.140617 0.425551
vt 0.883868 0.109141
vt 0.863174 0.132783
vt 0.780315 0.730850
vt 0.904201 0.567586
vt 0.790737 0.714008
vt 0.991542 0.652734
vt 0.385137 0.280077
vt 0.361364 0.425551
vt 0.394523 0.425551
vt 0.431960 0.425551
vt 0.501261 0.275352
vt 0.895170 0.148643
vt 0.914765 0.132766
vt 0.902932 0.303834
vt 0.990273 0.218686
vt 0.964497 0.303834
vt 0.965766 0.567586
vt 0.885173 0.762279
vt 0.151941 0.583698
vt 0.239090 0.583579
vt 0.234686 0.590248
vt 0.316239 0.596969
vt 0.431096 0.590779
vt 0.321182 0.614322
vt 0.319967 0.606876
vt 0.431099 0.614322
vt 0.143107 0.601016
vt 0.131726 0.583028
vt 0.321182 0.668033
vt 0.121565 0.601016
vt 0.131723 0.574876
vt 0.292110 0.279948
vt 0.247354 0.275352
vt 0.710784 0.887594
vt 0.920523 0.071258
vt 0.495912 0.469031
vt 0.445826 0.469031
vt 0.292701 0.071258
vt 0.390527 0.498466
vt 0.143107 0.668033
s 0
f 1/1/1 5/2/1 4/3/1
f 5/2/2 87/4/2 88/5/2
f 4/3/3 88/5/3 6/6/3
f 43/7/4 41/8/4 27/9/4
f 41/8/5 100/10/5 27/9/5
f 89/11/6 42/12/6 7/13/6
f 7/13/7 42/12/7 40/14/7
f 6/6/8 9/15/8 4/3/8
f 9/15/9 10/16/9 11/17/9
f 90/18/10 10/16/10 8/19/10
f 11/17/11 10/16/11 92/20/11
f 10/16/12 91/21/12 92/20/12
f 15/22/13 29/23/13 5/2/13
f 11/24/14 93/25/14 9/26/14
f 11/24/15 92/27/15 94/28/15
f 4/29/16 93/25/16 95/30/16
f 16/31/17 4/32/17 95/33/17
f 16/34/18 96/35/18 17/36/18
f 5/2/19 2/37/19 15/22/19
f 15/22/20 24/38/20 23/39/20
f 15/22/21 22/40/21 35/41/21
f 2/42/22 1/43/22 16/44/22
f 17/45/23 2/42/23 16/44/23
f 30/46/24 37/47/24 12/48/24
f 12/49/25 20/50/25 14/51/25
f 20/50/26 13/52/26 14/51/26
f 21/53/27 24/54/27 2/55/27
f 21/56/28 3/57/28 35/58/28
f 19/59/29 12/60/29 37/61/29
f 15/22/30 23/39/30 22/40/30
f 18/62/31 96/35/31 98/63/31
f 98/63/32 26/64/32 18/62/32
f 97/65/33 87/4/33 13/66/33
f 13/67/34 18/68/34 26/69/34
f 97/65/35 26/70/35 99/71/35
f 35/72/36 22/73/36 21/53/36
f 22/73/37 23/74/37 21/53/37
f 3/75/38 17/45/38 19/76/38
f 31/77/39 34/78/39 15/79/39
f 31/77/40 32/80/40 33/81/40
f 20/82/41 19/83/41 17/36/41
f 20/82/42 17/36/42 96/35/42
f 18/62/43 20/82/43 96/35/43
f 29/23/44 28/84/44 12/48/44
f 87/4/45 5/2/45 29/23/45
f 25/85/46 30/46/46 35/41/46
f 31/86/47 15/22/47 35/41/47
f 30/46/48 12/48/48 28/84/48
f 30/46/49 31/86/49 35/41/49
f 30/46/50 38/87/50 37/47/50
f 28/88/51 34/89/51 33/90/51
f 28/88/52 32/91/52 30/92/52
f 36/93/53 19/83/53 37/94/53
f 36/93/54 25/95/54 35/58/54
f 36/93/55 38/96/55 39/97/55
f 36/93/56 35/58/56 3/57/56
f 3/57/57 19/83/57 36/93/57
f 25/85/58 39/98/58 30/46/58
f 36/93/59 39/97/59 25/95/59
f 29/23/60 14/99/60 13/66/60
f 14/99/61 29/23/61 12/48/61
f 87/4/62 29/23/62 13/66/62
f 42/100/7 6/101/7 40/102/7
f 43/103/63 6/101/63 88/104/63
f 102/105/5 41/106/5 88/107/5
f 101/108/64 8/109/64 42/100/64
f 27/9/65 7/13/65 40/14/65
f 40/14/66 43/7/66 27/9/66
f 41/8/5 102/110/5 100/10/5
f 100/10/67 89/11/67 27/9/67
f 89/11/68 7/13/68 27/9/68
f 101/108/69 90/111/69 8/109/69
f 43/103/70 40/102/70 6/101/70
f 88/104/4 41/106/4 43/103/4
f 42/100/7 8/112/7 6/101/7
f 36/93/71 37/94/71 38/96/71
f 28/88/51 33/90/51 32/91/51
f 28/88/72 15/113/72 34/89/72
f 30/46/73 39/98/73 38/87/73
f 31/77/74 30/114/74 32/80/74
f 31/77/40 33/81/40 34/78/40
f 3/75/75 21/115/75 17/45/75
f 97/65/76 13/66/76 26/70/76
f 98/63/77 99/116/77 26/64/77
f 21/53/78 23/74/78 24/54/78
f 20/50/79 18/117/79 13/52/79
f 12/49/80 19/118/80 20/50/80
f 17/45/81 21/115/81 2/42/81
f 15/22/82 2/37/82 24/38/82
f 16/34/83 95/119/83 96/35/83
f 16/31/84 1/120/84 4/32/84
f 4/29/85 9/26/85 93/25/85
f 11/24/86 94/28/86 93/25/86
f 15/22/87 28/84/87 29/23/87
f 90/18/88 91/21/88 10/16/88
f 9/15/89 8/19/89 10/16/89
f 6/6/90 8/19/90 9/15/90
f 89/11/91 101/121/91 42/12/91
f 4/3/92 5/2/92 88/5/92
f 1/1/93 2/37/93 5/2/93
f 44/1/94 47/3/94 48/2/94
f 48/2/95 88/5/95 87/4/95
f 47/3/96 49/6/96 88/5/96
f 86/7/97 70/9/97 84/8/97
f 84/8/98 70/9/98 100/10/98
f 89/11/99 50/13/99 85/12/99
f 50/13/100 83/14/100 85/12/100
f 49/6/101 47/3/101 52/15/101
f 52/15/102 54/17/102 53/16/102
f 90/18/103 51/19/103 53/16/103
f 54/17/104 92/20/104 53/16/104
f 53/16/105 92/20/105 91/21/105
f 58/22/106 48/2/106 72/23/106
f 54/24/107 52/26/107 93/25/107
f 54/24/108 94/28/108 92/27/108
f 47/29/109 95/30/109 93/25/109
f 59/31/110 95/33/110 47/32/110
f 59/34/111 60/36/111 96/35/111
f 48/2/112 58/22/112 45/37/112
f 58/22/113 66/39/113 67/38/113
f 58/22/114 78/41/114 65/40/114
f 45/42/115 59/44/115 44/43/115
f 60/45/116 59/44/116 45/42/116
f 73/46/117 55/48/117 80/47/117
f 55/49/118 57/51/118 63/50/118
f 63/50/119 57/51/119 56/52/119
f 64/53/120 45/55/120 67/54/120
f 64/56/121 78/58/121 46/57/121
f 62/59/122 80/61/122 55/60/122
f 58/22/123 65/40/123 66/39/123
f 61/62/31 98/63/31 96/35/31
f 98/63/32 61/62/32 69/64/32
f 97/65/124 56/66/124 87/4/124
f 56/67/125 69/69/125 61/68/125
f 97/65/126 99/71/126 69/70/126
f 78/72/127 64/53/127 65/73/127
f 65/73/128 64/53/128 66/74/128
f 46/75/129 62/76/129 60/45/129
f 74/77/130 58/79/130 77/78/130
f 74/77/131 76/81/131 75/80/131
f 63/82/132 60/36/132 62/83/132
f 63/82/133 96/35/133 60/36/133
f 61/62/134 96/35/134 63/82/134
f 72/23/135 55/48/135 71/84/135
f 87/4/136 72/23/136 48/2/136
f 68/85/137 78/41/137 73/46/137
f 74/86/138 78/41/138 58/22/138
f 73/46/139 71/84/139 55/48/139
f 73/46/140 78/41/140 74/86/140
f 73/46/141 80/47/141 81/87/141
f 71/88/142 76/90/142 77/89/142
f 71/88/143 73/92/143 75/91/143
f 79/93/144 80/94/144 62/83/144
f 79/93/145 78/58/145 68/95/145
f 79/93/146 82/97/146 81/96/146
f 79/93/147 46/57/147 78/58/147
f 46/57/148 79/93/148 62/83/148
f 68/85/149 73/46/149 82/98/149
f 79/93/150 68/95/150 82/97/150
f 72/23/151 56/66/151 57/99/151
f 57/99/152 55/48/152 72/23/152
f 87/4/153 56/66/153 72/23/153
f 85/100/100 83/102/100 49/101/100
f 86/103/154 88/104/154 49/101/154
f 102/105/98 88/107/98 84/106/98
f 101/108/155 85/100/155 51/109/155
f 70/9/156 83/14/156 50/13/156
f 83/14/157 70/9/157 86/7/157
f 84/8/98 100/10/98 102/110/98
f 100/10/158 70/9/158 89/11/158
f 89/11/159 70/9/159 50/13/159
f 101/108/160 51/109/160 90/111/160
f 86/103/161 49/101/161 83/102/161
f 88/104/97 86/103/97 84/106/97
f 85/100/100 49/101/100 51/112/100
f 79/93/162 81/96/162 80/94/162
f 71/88/142 75/91/142 76/90/142
f 71/88/163 77/89/163 58/113/163
f 73/46/164 81/87/164 82/98/164
f 74/77/165 75/80/165 73/114/165
f 74/77/131 77/78/131 76/81/131
f 46/75/166 60/45/166 64/115/166
f 97/65/167 69/70/167 56/66/167
f 98/63/168 69/64/168 99/116/168
f 64/53/169 67/54/169 66/74/169
f 63/50/170 56/52/170 61/117/170
f 55/49/171 63/50/171 62/118/171
f 60/45/172 45/42/172 64/115/172
f 58/22/173 67/38/173 45/37/173
f 59/34/174 96/35/174 95/119/174
f 59/31/175 47/32/175 44/120/175
f 47/29/176 93/25/176 52/26/176
f 54/24/177 93/25/177 94/28/177
f 58/22/178 72/23/178 71/84/178
f 90/18/179 53/16/179 91/21/179
f 52/15/180 53/16/180 51/19/180
f 49/6/181 52/15/181 51/19/181
f 89/11/182 85/12/182 101/121/182
f 47/3/183 88/5/183 48/2/183
f 44/1/184 48/2/184 45/37/184
o back_wall
v -0.990000 -0.000000 -1.040000
v 1.000000 -0.000000 -1.040000
v 1.000000 1.990000 -1.040000
v -1.020000 1.990000 -1.040000
vn -0.0000 -0.0000 1.0000
s 0
f 103//185 104//185 105//185 106//185
o ceiling
v -1.020000 1.990000 0.990000
v -1.020000 1.990000 -1.040000
v 1.000000 1.990000 -1.040000
v 1.000000 1.990000 0.990000
vn -0.0000 -1.0000 -0.0000
s 0
f 107//186 108//186 109//186 110//186
o floor
v -1.010000 0.000000 0.990000
v 1.000000 0.000000 0.990000
v 1.000000 -0.000000 -1.040000
v -0.990000 -0.000000 -1.040000
vn -0.0000 1.0000 -0.0000
s 0
f 111//187 112//187 113//187 114//187
o left_wall
v -1.010000 0.000000 0.990000
v -0.990000 -0.000000 -1.040000
v -1.020000 1.990000 -1.040000
v -1.020000 1.990000 0.990000
vn 0.9999 0.0100 0.0049
s 0
f 115//188 116//188 117//188 118//188
o right_wall
v 1.000000 -0.000000 -1.040000
v 1.000000 0.000000 0.990000
v 1.000000 1.990000 0.990000
v 1.000000 1.990000 -1.040000
vn -1.0000 -0.0000 -0.0000
s 0
f 119//189 120//189 121//189 122//189
o light
v -0.216208 1.980000 0.182229
v -0.216208 1.980000 -0.232229
v 0.196208 1.980000 -0.232229
v 0.196208 1.980000 0.182229
vn -0.0000 -1.0000 -0.0000
s 0
f 123//190 124//190 125//190 126//190
