# Blender 4.0.2
# www.blender.org
mtllib cornell_box.mtl
o back_wall
v 549.599976 0.000084 559.200012
v 0.000000 0.000084 559.200012
v 0.000000 548.800110 559.199890
v 556.000000 548.800110 559.199890
vn -0.0000 -0.0000 -1.0000
s 0
f 1//1 2//1 3//1
f 1//1 3//1 4//1
o ceiling
v 556.000000 548.799988 -0.000082
v 556.000000 548.800110 559.199890
v 0.000000 548.800110 559.199890
v 0.000000 548.799988 -0.000082
vn -0.0000 -1.0000 -0.0000
s 0
f 5//2 6//2 7//2
f 5//2 7//2 8//2
o floor
v 552.799988 0.000000 0.000000
v 0.000000 0.000000 0.000000
v 0.000000 0.000084 559.200012
v 549.599976 0.000084 559.200012
vn -0.0000 1.0000 -0.0000
s 0
f 9//3 10//3 11//3
f 9//3 11//3 12//3
o left_wall
v 552.799988 0.000000 0.000000
v 549.599976 0.000084 559.200012
v 556.000000 548.800110 559.199890
v 556.000000 548.799988 -0.000082
vn -0.9999 0.0117 -0.0057
vn -1.0000 0.0058 -0.0000
s 0
f 13//4 14//4 15//4
f 13//5 15//5 16//5
o right_wall
v 0.000000 0.000084 559.200012
v 0.000000 0.000000 0.000000
v 0.000000 548.799988 -0.000082
v 0.000000 548.800110 559.199890
vn 1.0000 -0.0000 -0.0000
s 0
f 17//6 18//6 19//6
f 17//6 19//6 20//6
o short_box
v 130.000000 165.000000 64.999969
v 82.000000 165.000031 224.999969
v 240.000000 165.000031 272.000000
v 290.000000 165.000031 113.999969
v 290.000000 0.000018 114.000000
v 290.000000 165.000031 113.999969
v 240.000000 165.000031 272.000000
v 240.000000 0.000042 272.000000
v 130.000000 0.000010 65.000000
v 130.000000 165.000000 64.999969
v 290.000000 165.000031 113.999969
v 290.000000 0.000018 114.000000
v 82.000000 0.000034 225.000000
v 82.000000 165.000031 224.999969
v 130.000000 165.000000 64.999969
v 130.000000 0.000010 65.000000
v 240.000000 0.000042 272.000000
v 240.000000 165.000031 272.000000
v 82.000000 165.000031 224.999969
v 82.000000 0.000034 225.000000
vn -0.0000 1.0000 -0.0000
vn 0.9534 -0.0000 0.3017
vn 0.2928 -0.0000 -0.9562
vn -0.9578 -0.0000 -0.2873
vn -0.2851 -0.0000 0.9585
s 0
f 21//7 22//7 23//7
f 21//7 23//7 24//7
f 25//8 26//8 27//8
f 25//8 27//8 28//8
f 29//9 30//9 31//9
f 29//9 31//9 32//9
f 33//10 34//10 35//10
f 33//10 35//10 36//10
f 37//11 38//11 39//11
f 37//11 39//11 40//11
o tall_block
v 423.000000 330.000061 246.999939
v 265.000000 330.000061 295.999939
v 314.000000 330.000061 455.999939
v 472.000000 330.000061 405.999939
v 423.000000 0.000038 247.000000
v 423.000000 330.000061 246.999939
v 472.000000 330.000061 405.999939
v 472.000000 0.000062 406.000000
v 472.000000 0.000062 406.000000
v 472.000000 330.000061 405.999939
v 314.000000 330.000061 455.999939
v 314.000000 0.000068 456.000000
v 314.000000 0.000068 456.000000
v 314.000000 330.000061 455.999939
v 265.000000 330.000061 295.999939
v 265.000000 0.000044 296.000000
v 265.000000 0.000044 296.000000
v 265.000000 330.000061 295.999939
v 423.000000 330.000061 246.999939
v 423.000000 0.000038 247.000000
vn -0.0000 1.0000 -0.0000
vn 0.9556 -0.0000 -0.2945
vn 0.3017 -0.0000 0.9534
vn -0.9562 -0.0000 0.2928
vn -0.2962 -0.0000 -0.9551
s 0
f 41//12 42//12 43//12
f 41//12 43//12 44//12
f 45//13 46//13 47//13
f 45//13 47//13 48//13
f 49//14 50//14 51//14
f 49//14 51//14 52//14
f 53//15 54//15 55//15
f 53//15 55//15 56//15
f 57//16 58//16 59//16
f 57//16 59//16 60//16
o area_light
v 353.418701 547.799988 203.747177
v 353.418701 547.800049 355.452698
v 202.581299 547.800049 355.452698
v 202.581299 547.799988 203.747177
vn -0.0000 -1.0000 -0.0000
s 0
f 61//17 62//17 63//17
f 61//17 63//17 64//17
